<?xml version="1.0" encoding="UTF-8" standalone="no"?>
<!-- Created with Inkscape (http://www.inkscape.org/) -->

<svg
   xmlns:dc="http://purl.org/dc/elements/1.1/"
   xmlns:cc="http://creativecommons.org/ns#"
   xmlns:rdf="http://www.w3.org/1999/02/22-rdf-syntax-ns#"
   xmlns:svg="http://www.w3.org/2000/svg"
   xmlns="http://www.w3.org/2000/svg"
   xmlns:sodipodi="http://sodipodi.sourceforge.net/DTD/sodipodi-0.dtd"
   xmlns:inkscape="http://www.inkscape.org/namespaces/inkscape"
   width="500"
   height="100"
   id="svg2"
   version="1.1"
   inkscape:version="0.48.4 r9939"
   sodipodi:docname="logo.svg"
   inkscape:export-filename="/home/axel/IdeaProjects/m120142015-gymtonik/web/assets/img/logo.png"
   inkscape:export-xdpi="90"
   inkscape:export-ydpi="90">
  <defs
     id="defs4" />
  <sodipodi:namedview
     id="base"
     pagecolor="#ffffff"
     bordercolor="#666666"
     borderopacity="1.0"
     inkscape:pageopacity="0.0"
     inkscape:pageshadow="2"
     inkscape:zoom="1.4"
     inkscape:cx="196.70216"
     inkscape:cy="114.51095"
     inkscape:document-units="px"
     inkscape:current-layer="layer1"
     showgrid="false"
     width="500px"
     inkscape:window-width="1366"
     inkscape:window-height="702"
     inkscape:window-x="0"
     inkscape:window-y="27"
     inkscape:window-maximized="1" />
  <metadata
     id="metadata7">
    <rdf:RDF>
      <cc:Work
         rdf:about="">
        <dc:format>image/svg+xml</dc:format>
        <dc:type
           rdf:resource="http://purl.org/dc/dcmitype/StillImage" />
        <dc:title></dc:title>
      </cc:Work>
    </rdf:RDF>
  </metadata>
  <g
     inkscape:label="Calque 1"
     inkscape:groupmode="layer"
     id="layer1"
     transform="translate(0,-952.3622)">
    <g
       id="g3040"
       transform="matrix(2.9464932,-2.9464932,2.9464932,2.9464932,-26.774047,1002.197)"
       style="fill:#5cb85c;fill-opacity:1"
       inkscape:export-xdpi="90"
       inkscape:export-ydpi="90"
       inkscape:export-filename="/home/axel/IdeaProjects/m120142015-gymtonik/web/assets/img/logo.png">
      <g
         id="g2986"
         style="fill:#5cb85c;fill-opacity:1">
        <path
           id="path2988"
           d="m 6,21.5 c -0.551,0 -1,-0.449 -1,-1 v -15 c 0,-0.551 0.449,-1 1,-1 h 2 c 0.551,0 1,0.449 1,1 v 15 c 0,0.551 -0.449,1 -1,1 H 6 z"
           style="fill:#5cb85c;fill-opacity:1"
           inkscape:connector-curvature="0" />
        <path
           id="path2990"
           d="m 3,19.5 c -0.551,0 -1,-0.449 -1,-1 v -11 c 0,-0.551 0.449,-1 1,-1 h 1 v 13 H 3 z"
           style="fill:#5cb85c;fill-opacity:1"
           inkscape:connector-curvature="0" />
        <path
           id="path2992"
           d="m 18,21.5 c -0.551,0 -1,-0.449 -1,-1 v -15 c 0,-0.551 0.449,-1 1,-1 h 2 c 0.551,0 1,0.449 1,1 v 15 c 0,0.551 -0.449,1 -1,1 h -2 z"
           style="fill:#5cb85c;fill-opacity:1"
           inkscape:connector-curvature="0" />
        <path
           id="path2994"
           d="m 22,19.5 v -13 h 1 c 0.551,0 1,0.449 1,1 v 11 c 0,0.551 -0.449,1 -1,1 h -1 z"
           style="fill:#5cb85c;fill-opacity:1"
           inkscape:connector-curvature="0" />
        <g
           id="g2996"
           style="fill:#5cb85c;fill-opacity:1">
          <path
             id="path2998"
             d="m 25,11.5 h -2 v 3 h 2 c 0.551,0 1,-0.449 1,-1 v -1 c 0,-0.551 -0.449,-1 -1,-1 z"
             style="fill:#5cb85c;fill-opacity:1"
             inkscape:connector-curvature="0" />
          <path
             id="path3000"
             d="M 3,11.5 H 1 c -0.551,0 -1,0.449 -1,1 v 1 c 0,0.551 0.449,1 1,1 h 2 v -3 z"
             style="fill:#5cb85c;fill-opacity:1"
             inkscape:connector-curvature="0" />
          <rect
             id="rect3002"
             height="3"
             width="10"
             style="fill:#5cb85c;fill-opacity:1"
             y="11.5"
             x="8" />
        </g>
      </g>
      <g
         id="g3004"
         style="fill:#5cb85c;fill-opacity:1" />
      <g
         id="g3006"
         style="fill:#5cb85c;fill-opacity:1" />
      <g
         id="g3008"
         style="fill:#5cb85c;fill-opacity:1" />
      <g
         id="g3010"
         style="fill:#5cb85c;fill-opacity:1" />
      <g
         id="g3012"
         style="fill:#5cb85c;fill-opacity:1" />
      <g
         id="g3014"
         style="fill:#5cb85c;fill-opacity:1" />
      <g
         id="g3016"
         style="fill:#5cb85c;fill-opacity:1" />
      <g
         id="g3018"
         style="fill:#5cb85c;fill-opacity:1" />
      <g
         id="g3020"
         style="fill:#5cb85c;fill-opacity:1" />
      <g
         id="g3022"
         style="fill:#5cb85c;fill-opacity:1" />
      <g
         id="g3024"
         style="fill:#5cb85c;fill-opacity:1" />
      <g
         id="g3026"
         style="fill:#5cb85c;fill-opacity:1" />
      <g
         id="g3028"
         style="fill:#5cb85c;fill-opacity:1" />
      <g
         id="g3030"
         style="fill:#5cb85c;fill-opacity:1" />
      <g
         id="g3032"
         style="fill:#5cb85c;fill-opacity:1" />
    </g>
    <text
       xml:space="preserve"
       style="font-size:40px;font-style:normal;font-weight:normal;line-height:125%;letter-spacing:0px;word-spacing:0px;fill:#000000;fill-opacity:1;stroke:none;font-family:Sans"
       x="113.86242"
       y="1022.177"
       id="text3066"
       sodipodi:linespacing="125%"><tspan
         sodipodi:role="line"
         id="tspan3068"
         x="113.86242"
         y="1022.177"
         style="font-size:72px;font-style:normal;font-variant:normal;font-weight:normal;font-stretch:normal;font-family:Montserrat;-inkscape-font-specification:Montserrat">Gym Tonik</tspan></text>
    <path
       style="fill:#5cb85f;fill-opacity:0;stroke:none"
       d="M 27.075047,73.279913 C 9.1850003,55.42009 3.6307276,49.46526 3.6307276,48.144858 c 0,-2.31358 7.0009854,-9.370094 9.2963594,-9.370094 1.168181,0 4.468333,2.784177 11.193175,9.443134 l 9.536567,9.443134 11.772664,-11.756444 c 6.474965,-6.466044 11.772663,-12.086164 11.772663,-12.489154 0,-0.402991 -4.178571,-4.902007 -9.285714,-9.997813 -5.107143,-5.095807 -9.285714,-9.839422 -9.285714,-10.541368 0,-1.538124 5.272116,-7.4123483 7.820093,-8.713196 1.101137,-0.5621757 2.388332,-0.7065007 3.251335,-0.3645518 2.283148,0.9046543 46.785715,45.9594418 46.785715,47.3662668 0,1.716067 -6.952365,8.963536 -9.120593,9.507725 -1.50505,0.377745 -3.008,-0.828976 -11.140586,-8.944826 -5.170458,-5.159813 -9.721604,-9.381479 -10.113659,-9.381479 -0.392056,0 -6.003228,5.297699 -12.469273,11.772664 l -11.756444,11.772663 9.443134,9.536566 c 6.952718,7.021514 9.443135,9.998322 9.443135,11.28745 0,1.860307 -6.284632,8.575829 -8.87711,9.48575 -1.117451,0.3922 -5.797606,-3.929686 -24.821428,-22.921372 z"
       id="path3857"
       inkscape:connector-curvature="0"
       transform="translate(0,952.3622)" />
  </g>
</svg>
